<svg xmlns="http://www.w3.org/2000/svg" xmlns:xlink="http://www.w3.org/1999/xlink" viewBox="-2982.55 2676.75 55.8 38">
  <defs>
    <style>
      .cls-1 {
        fill: #f5a3a3;
        stroke-width: 1.5px;
      }

      .cls-1, .cls-2 {
        stroke: #e5e5e5;
      }

      .cls-2 {
        fill: #fff;
        stroke-width: 0.5px;
      }

      .cls-3 {
        filter: url(#circle);
      }
    </style>
    <filter id="circle" x="-2982.55" y="2677.25" width="37.5" height="37.5" filterUnits="userSpaceOnUse">
      <feOffset dy="3" input="SourceAlpha"/>
      <feGaussianBlur stdDeviation="1.5" result="blur"/>
      <feFlood flood-opacity="0.161"/>
      <feComposite operator="in" in2="blur"/>
      <feComposite in="SourceGraphic"/>
    </filter>
  </defs>
  <g id="Airplane_Mode_toggle" data-name="Airplane Mode toggle" transform="translate(-3287 2572)">
    <path id="oval" class="cls-1" d="M23.5,0h20A15.45,15.45,0,0,1,59,15.5h0A15.45,15.45,0,0,1,43.5,31h-20A15.45,15.45,0,0,1,8,15.5H8A15.45,15.45,0,0,1,23.5,0Z" transform="translate(300.5 105.5)"/>
    <g class="cls-3" transform="matrix(1, 0, 0, 1, 3287, -2572)">
      <path id="circle-2" data-name="circle" class="cls-2" d="M14,0A14,14,0,1,1,0,14,14,14,0,0,1,14,0Z" transform="translate(-2977.8 2679)"/>
    </g>
  </g>
</svg>
