<svg xmlns="http://www.w3.org/2000/svg" viewBox="-6643.321 1631 26.583 34">
  <defs>
    <style>
      .cls-1 {
        fill: #fff;
      }
    </style>
  </defs>
  <g id="_003-dollar-coins" data-name="003-dollar-coins" transform="translate(-6698.985 1631.002)">
    <path id="Path_507" data-name="Path 507" class="cls-1" d="M79.86,16.611a26.121,26.121,0,0,0-4.5-4.817C74.1,10.677,73,9.692,72.72,8.841a1.565,1.565,0,0,0,.044-2.9L73.921,1.4A1.113,1.113,0,0,0,73.7.291,1.115,1.115,0,0,0,72.59.05l-.025.007c-.022.007-2.178.7-2.9.9a3.88,3.88,0,0,1-1.749,0c-.724-.206-2.9-.9-2.926-.9L64.969.048a1.116,1.116,0,0,0-1.114.243,1.116,1.116,0,0,0-.215,1.12l0,.016,1.469,4.528a1.565,1.565,0,0,0,.075,2.886c-.278.851-1.384,1.837-2.638,2.954a26.119,26.119,0,0,0-4.5,4.817,13.573,13.573,0,0,0-2.386,7.826,8.992,8.992,0,0,0,2.944,6.723A11.92,11.92,0,0,0,66.822,34h4.264A11.92,11.92,0,0,0,79.3,31.161a8.992,8.992,0,0,0,2.944-6.723A13.573,13.573,0,0,0,79.86,16.611ZM70.011,7.948H65.757a.566.566,0,0,1,0-1.133h6.4a.566.566,0,1,1,0,1.133ZM64.58,1a.415.415,0,0,1,.126.015c.206.065,2.224.7,2.94.909a4.851,4.851,0,0,0,2.3,0c.708-.2,2.7-.84,2.909-.905A.419.419,0,0,1,72.979,1a.432.432,0,0,1-.021.135l0,.015-1.19,4.667H70.127l.378-1.511a.5.5,0,0,0-.97-.242L69.1,5.816h-.286l-.438-1.753a.5.5,0,1,0-.97.242l.378,1.511H66.12L64.6,1.127A.42.42,0,0,1,64.58,1ZM78.628,30.423A10.945,10.945,0,0,1,71.086,33H66.822a10.945,10.945,0,0,1-7.541-2.576,8,8,0,0,1-2.619-5.985c0-6.058,3.788-9.433,6.554-11.9,1.491-1.328,2.707-2.412,2.981-3.593h1l-.314.941a.5.5,0,1,0,.948.316l.419-1.257H69.66l.419,1.257a.5.5,0,0,0,.948-.316l-.314-.941h1c.275,1.181,1.49,2.265,2.981,3.593,2.766,2.464,6.554,5.839,6.554,11.9a8,8,0,0,1-2.619,5.985Z" transform="translate(0 0)"/>
    <path id="Path_508" data-name="Path 508" class="cls-1" d="M210.828,257.392c1.174,0,2.165.625,2.165,1.366a.5.5,0,0,0,1,0c0-1.2-1.136-2.163-2.665-2.337v-.595a.5.5,0,0,0-1,0v.595c-1.529.174-2.665,1.138-2.665,2.337,0,1.326,1.39,2.365,3.165,2.365,1.174,0,2.165.625,2.165,1.366s-.992,1.366-2.165,1.366-2.165-.625-2.165-1.366a.5.5,0,0,0-1,0c0,1.2,1.136,2.163,2.665,2.337v.595a.5.5,0,1,0,1,0v-.595c1.529-.174,2.665-1.138,2.665-2.337,0-1.326-1.39-2.365-3.165-2.365-1.174,0-2.165-.625-2.165-1.366S209.654,257.392,210.828,257.392Z" transform="translate(-141.873 -238.318)"/>
    <path id="Path_509" data-name="Path 509" class="cls-1" d="M143.625,215.327a7.962,7.962,0,1,0,7.962,7.962A7.971,7.971,0,0,0,143.625,215.327Zm0,14.924a6.962,6.962,0,1,1,6.962-6.962A6.97,6.97,0,0,1,143.625,230.251Z" transform="translate(-74.67 -200.983)"/>
  </g>
</svg>
