<svg xmlns="http://www.w3.org/2000/svg" viewBox="-6763.012 1631 37.61 34">
  <defs>
    <style>
      .cls-1 {
        fill: #fff;
      }
    </style>
  </defs>
  <g id="_002-people" data-name="002-people" transform="translate(-6763.012 1606.431)">
    <g id="Group_348" data-name="Group 348" transform="translate(0 24.569)">
      <path id="Path_506" data-name="Path 506" class="cls-1" d="M35.94,44.334a5.184,5.184,0,0,0-1.677-1.072l-2.535-1.056-1.776-1.172v-.6a4.841,4.841,0,0,0,2.537-3.514,2.277,2.277,0,0,0,1.378-3.8V30.943a6.382,6.382,0,0,0-6.374-6.374H27.01a6.37,6.37,0,0,0-6.16,4.732,6.669,6.669,0,0,0-1.745-.232H18.6a6.664,6.664,0,0,0-1.833.258A6.369,6.369,0,0,0,10.6,24.569h-.482a6.382,6.382,0,0,0-6.374,6.374v2.185a2.277,2.277,0,0,0,1.378,3.8,4.841,4.841,0,0,0,2.537,3.514v.6L5.883,42.205,3.347,43.262A5.183,5.183,0,0,0,1.67,44.334,5.434,5.434,0,0,0,0,48.423v3.609a.6.6,0,0,0,.594.595H8.051a6.6,6.6,0,0,0-.176,1.544v3.8a.6.6,0,0,0,.594.595H22.421a.594.594,0,1,0,0-1.188H21.149l-.717-4.445.28-.747.424.312a.594.594,0,0,0,.886-.218l1.613-3.315,2.152.9.039.015a4.419,4.419,0,0,1,2.722,4.292v3.21H26.084V54A.594.594,0,0,0,24.9,54v3.383h-.628a.594.594,0,1,0,0,1.188h4.873a.6.6,0,0,0,.594-.6v-3.8a6.6,6.6,0,0,0-.176-1.544h7.457a.6.6,0,0,0,.594-.6v-3.6A5.434,5.434,0,0,0,35.94,44.334Zm-4.577-8.177A3.645,3.645,0,0,1,27.721,39.8H26.8a3.7,3.7,0,0,1-.383-.021c0-.034,0-.068,0-.1a2.36,2.36,0,0,0-.631-1.608V35.753a6.641,6.641,0,0,0-.686-2.945,8.614,8.614,0,0,0,4.013-2.074,4.254,4.254,0,0,0,2.244,2.256v3.167Zm-2.6,4.714v1.214l-1.526,1.584-1.478-1.44c0-.007,0-.013,0-.019v-.894h0a2.376,2.376,0,0,0,.3-.388,4.864,4.864,0,0,0,.74.058h.919A4.816,4.816,0,0,0,28.764,40.871Zm-3.529-1.2a1.176,1.176,0,0,1-.3.781.6.6,0,0,0-.268.225,1.171,1.171,0,0,1-.264.122V38.547A1.183,1.183,0,0,1,25.234,39.675Zm8.043-5.009a1.092,1.092,0,0,1-.728,1.027V33.638A1.092,1.092,0,0,1,33.278,34.666ZM21.986,29.649a5.183,5.183,0,0,1,5.024-3.892h.482a5.193,5.193,0,0,1,5.187,5.187v1.5c-.048-.011-.1-.02-.145-.028a.594.594,0,0,0-.446-.442c-1.662-.378-2.174-2.5-2.178-2.52a.594.594,0,0,0-1.06-.217,7.1,7.1,0,0,1-4.4,2.5,6.727,6.727,0,0,0-2.481-2.026A.587.587,0,0,0,21.986,29.649Zm-3.388.607h.507a5.5,5.5,0,0,1,5.5,5.5v1.618c-.069-.016-.139-.03-.211-.04,0-.008,0-.015-.005-.023s0-.02-.008-.03-.006-.019-.01-.029l-.009-.025-.013-.03-.011-.022-.016-.028-.013-.022-.017-.025-.017-.022-.018-.021-.021-.023-.018-.017-.024-.022-.019-.015-.027-.02-.022-.014-.027-.016-.026-.014-.025-.012-.033-.013L24,36.882l-.038-.011-.015,0c-1.772-.4-2.314-2.658-2.319-2.679a.594.594,0,0,0-1.06-.217c-2.064,2.853-6.574,2.881-6.642,2.881h0a.592.592,0,0,0-.061,0l-.014,0-.045.007-.016,0-.041.01-.021.008-.034.012-.026.012-.026.013-.025.015-.024.014-.024.018-.022.016-.022.02-.02.018-.019.021-.019.021-.017.022-.017.023-.014.024-.015.025-.012.025c0,.009-.009.018-.013.027s-.006.018-.01.026-.007.019-.01.028,0,.018-.007.028-.005.019-.007.029v.006a2.334,2.334,0,0,0-.234.046V35.753A5.5,5.5,0,0,1,18.6,30.256Zm.24,18.951-1.591-1.549c0-.011,0-.022,0-.033v-.942h0v-.507a5.049,5.049,0,0,0,1.13.129h.968a5.055,5.055,0,0,0,1.1-.121l.033,0v1.326Zm.879,2.252-.309.823H18.3l-.349-.834.875-.644ZM10.86,46.6H9.851l-.278-.74.808-.594.794.584Zm.078,2.36a5.681,5.681,0,0,0-1.315.927l-.02.019.342-2.118h.8Zm-.567-5.29L8.846,42.085V40.871a4.826,4.826,0,0,0,1.042.115h.919a4.876,4.876,0,0,0,.848-.074,2.38,2.38,0,0,0,.194.272v1.026c0,.007,0,.013,0,.019Zm2.485-.763a.592.592,0,0,0,.175-.5l.522.344a5.008,5.008,0,0,0,.2.529l-1.071,2.2-1.408-1.036Zm-.364-3.23a1.184,1.184,0,0,1,.83-1.128V40.8A1.183,1.183,0,0,1,12.493,39.675Zm-.335,6.9.394.29a.594.594,0,0,0,.886-.218l1.055-2.168a5.087,5.087,0,0,0,1.569,1.261v.618l-1.9,1.256a.6.6,0,0,0-.077.025l-2.018.841-.2-1.212Zm3.921,1.194a.593.593,0,0,0,.162.568l1.695,1.651-1.545,1.137-1.312-2.7Zm3.268-2.652H18.38a3.873,3.873,0,0,1-3.868-3.868V38.014a10.336,10.336,0,0,0,6.318-2.536,4.462,4.462,0,0,0,2.387,2.408v3.36h0A3.873,3.873,0,0,1,19.348,45.115ZM5.059,35.693a1.089,1.089,0,0,1,0-2.055Zm.61-3.737H5.653a.594.594,0,0,0-.577.457c-.049.007-.1.017-.145.028v-1.5a5.193,5.193,0,0,1,5.187-5.187H10.6a5.183,5.183,0,0,1,5.024,3.892.6.6,0,0,0,.037.1,6.722,6.722,0,0,0-2.052,1.562,4.194,4.194,0,0,1-.925-1.718.594.594,0,0,0-1.06-.217c-1.847,2.554-5.894,2.579-5.953,2.579Zm.578,4.2V33.118a9.424,9.424,0,0,0,5.647-2.249,4.753,4.753,0,0,0,1,1.406,6.644,6.644,0,0,0-.978,3.478v2.339a2.359,2.359,0,0,0-.608,1.583c0,.029,0,.058,0,.087a3.682,3.682,0,0,1-.5.036H9.888A3.645,3.645,0,0,1,6.247,36.157Zm1.425,6.291a.59.59,0,0,0,.153.288l1.655,1.718-1.4,1.03-1.217-2.5Zm.481,8.992h-3.5v-3.18a.594.594,0,1,0-1.188,0v3.18H1.188V48.423A4.136,4.136,0,0,1,3.75,44.379l.039-.015,2.016-.84,1.518,3.12a.594.594,0,0,0,.886.218l.37-.272.249.664Zm8.426,5.942H12.713V54a.594.594,0,0,0-1.188,0v3.383H9.062v-3.21a4.388,4.388,0,0,1,2.722-4.292l.039-.015,2.191-.913,1.621,3.331a.594.594,0,0,0,.392.317.6.6,0,0,0,.142.017.593.593,0,0,0,.352-.116l.448-.329.325.776Zm1.2,0,.631-3.912h.9l.631,3.912Zm3.484-6.259-.468-.344,0,0-1.063-.782L21.5,48.157a.591.591,0,0,0,.161-.335l.917.605Zm4.28-2.644-1.992-.83L21.668,46.4h0v-.665a5.085,5.085,0,0,0,1.493-1.174l1.012,2.081a.594.594,0,0,0,.886.218l.394-.29.29.693Zm-.619-2.994-1.01-2.075a5.017,5.017,0,0,0,.285-.752l.375-.248a.592.592,0,0,0,.175.5l1.583,1.542Zm3.059,4.4a5.683,5.683,0,0,0-1.315-.927l.189-1.172h.8l.342,2.118ZM27.758,46.6H26.749l-.315-.751.794-.584.808.595Zm.372-2.145,1.655-1.718a.59.59,0,0,0,.153-.288l.809.534-1.217,2.5Zm6.014,6.986v-3.18a.594.594,0,0,0-1.188,0v3.18h-3.5l-.675-4.185.249-.664.37.272a.594.594,0,0,0,.886-.218l1.518-3.12,2.016.84.039.015a4.163,4.163,0,0,1,2.563,4.044v3.016H34.144Z" transform="translate(0 -24.569)"/>
    </g>
  </g>
</svg>
