<svg xmlns="http://www.w3.org/2000/svg" viewBox="-6983 1631 33.944 34">
  <defs>
    <style>
      .cls-1 {
        fill: #fff;
      }
    </style>
  </defs>
  <g id="_001-graphic" data-name="001-graphic" transform="translate(-6983.05 1631)">
    <g id="_x33_4" transform="translate(0.05)">
      <g id="Group_347" data-name="Group 347">
        <path id="Path_505" data-name="Path 505" class="cls-1" d="M33.3,0a.692.692,0,0,0-.693.693V4.131L27.416,6.843a3.942,3.942,0,1,0-5.325,5.679l-1.724,3.887A3.933,3.933,0,0,0,15.6,21.183L11.72,22.91a3.942,3.942,0,1,0-5.549,5.423l-2.024,4.28H.743A.693.693,0,0,0,.743,34H31.4a2.6,2.6,0,0,0,2.6-2.6V.693A.692.692,0,0,0,33.3,0Zm-9,6.692a2.548,2.548,0,0,1,2.25,1.37s0,.01,0,.014a.191.191,0,0,1,.014.02,2.531,2.531,0,0,1,.289,1.156A2.557,2.557,0,1,1,24.3,6.692ZM19.425,17.678a2.561,2.561,0,1,1-2.557,2.561A2.563,2.563,0,0,1,19.425,17.678ZM8.456,22.562a2.561,2.561,0,0,1,0,5.121,2.52,2.52,0,0,1-1.085-.25s0,0-.006,0h0a2.556,2.556,0,0,1,1.094-4.866ZM31.4,32.614H5.681L7.423,28.93a3.933,3.933,0,0,0,4.857-4.75l3.881-1.726a3.944,3.944,0,1,0,5.473-5.482l1.725-3.887a3.947,3.947,0,0,0,4.7-5.012L32.61,5.7V31.4A1.215,1.215,0,0,1,31.4,32.614Z" transform="translate(-0.05)"/>
      </g>
    </g>
  </g>
</svg>
