<svg xmlns="http://www.w3.org/2000/svg" viewBox="-6871.233 1631 34.953 34">
  <defs>
    <style>
      .cls-1 {
        fill: #fff;
      }
    </style>
  </defs>
  <g id="_004-house" data-name="004-house" transform="translate(-6871.234 1630.182)">
    <path id="Path_510" data-name="Path 510" class="cls-1" d="M14,32.007h8.156V26.182H14Zm1.165-1.165V29.095H20.99v1.748Zm5.825-3.5v.583H15.165v-.583Z" transform="translate(-5.844 -10.588)"/>
    <path id="Path_511" data-name="Path 511" class="cls-1" d="M14,40.182v6.99h8.156v-6.99Zm3.5,1.165v1.748h-2.33V41.347Zm-2.33,2.913H17.5v1.748h-2.33Zm3.5,1.748V44.26h2.33v1.748Zm2.33-2.913H18.66V41.347h2.33Z" transform="translate(-5.844 -16.433)"/>
    <path id="Path_512" data-name="Path 512" class="cls-1" d="M32,32.007h8.156V26.182H32Zm1.165-1.165V30.26H38.99v.583Zm5.825-3.5v1.748H33.165V27.347Z" transform="translate(-13.359 -10.588)"/>
    <path id="Path_513" data-name="Path 513" class="cls-1" d="M34.37,28.409a.582.582,0,0,0-.583.583v.583H33.2v-.583a.583.583,0,1,0-1.165,0v.583h-.583V17.8A2.324,2.324,0,0,0,34.725,15.5a2.34,2.34,0,0,0-.887-1.65L19.062,2.29,17.476.818l-1.548,1.44L1.114,13.848a2.329,2.329,0,0,0-.271,3.42,2.312,2.312,0,0,0,2.652.537v11.77H2.913v-.583a.583.583,0,0,0-1.165,0v.583H1.165v-.583a.583.583,0,0,0-1.165,0v5.243a.583.583,0,1,0,1.165,0v-.583h.583v.583a.583.583,0,1,0,1.165,0v-.583H3.5v1.165H31.457V33.653h.583v.583a.583.583,0,1,0,1.165,0v-.583h.583v.583a.583.583,0,1,0,1.165,0V28.993A.583.583,0,0,0,34.37,28.409ZM1.7,16.475a1.165,1.165,0,0,1,.136-1.709L16.684,3.144l.793-.737.83.768L33.12,14.766A1.164,1.164,0,0,1,31.692,16.6l-.235-.181h0L17.476,5.647,3.722,16.25h0l-.461.355A1.159,1.159,0,0,1,1.7,16.475ZM1.165,32.487V30.74h.583v1.748Zm1.748,0V30.74H3.5v1.748Zm16.894,1.165V24.914h5.825v8.738Zm10.486,0H26.8v-9.9H18.641v9.9H4.66V17L17.476,7.118,30.292,17Zm1.165-1.165V30.74h.583v1.748Zm1.748,0V30.74h.583v1.748Z" transform="translate(0 0)"/>
  </g>
</svg>
